<?xml version="1.0" encoding="utf-8"?>
<!-- Generator: Adobe Illustrator 27.0.0, SVG Export Plug-In . SVG Version: 6.00 Build 0)  -->
<svg version="1.1" id="Layer_2_00000085968645980447050940000000047664471129276560_"
	 xmlns="http://www.w3.org/2000/svg" xmlns:xlink="http://www.w3.org/1999/xlink" x="0px" y="0px" viewBox="0 0 202.36206 250"
	 style="enable-background:new 0 0 202.36206 250;" xml:space="preserve">
<style type="text/css">
	.st0{fill:#E152FF;}
	.st1{opacity:0.7;fill:#FF94DE;enable-background:new    ;}
	.st2{opacity:0.6;fill:#E040FB;enable-background:new    ;}
</style>
<circle id="path-04" class="st0" cx="108.44421" cy="51.1007" r="31.01141"/>
<path id="path-03" class="st1" d="M149.38518,57.51157c-3.00929-2.09562-6.77031,1.13926-5.19691,4.45165
	c6.02005,12.67374,11.05708,31.55006-10.05322,34.88328c-16.17363,2.55373-41.71102,6.68837-61.52698-11.21762
	C44.39403,60.13427,68.1479,14.9409,109.89861,42.73169c2.99751,1.99525,6.77087-1.06308,5.34107-4.36787
	C110.02689,26.31533,95.78391,8.01189,68.52892,1.32671c-36.03238-8.83813-46.89897,28.0946-47.92986,62.8867
	c-1.30039,43.88819,4.86117,130.06076,84.79371,146.41676c3.55801,0.72804,6.0983-3.34337,3.77455-6.13438
	c-5.70643-6.85388-12.84676-17.71291-14.80386-30.82553c-3.39927-22.77518,6.45865-36.37231,29.91367-43.17087
	c23.45504-6.79857,53.02879-1.35971,52.34892-29.91367c-0.43552-18.29163-15.35283-34.79551-27.24088-43.07412V57.51157z"/>
<path id="path-02" class="st2" d="M10.89648,157.66008C-1.23825,176.51921-9.981,215.85435,22.94511,239.25163
	c28.64883,20.35783,69.28584,7.35411,94.61538-2.73706c4.83653-1.92685,3.38865-9.08844-1.81491-8.92171
	c-12.21075,0.39128-29.62133,0.77859-42.45827-5.7827c-26.25039-13.4173-20.60665-32.02602-16.05762-59.18292
	C62.43657,131.54294,39.81273,112.72005,10.89648,157.66008z"/>
<path id="path-01" class="st2" d="M92.51009,195.55573c13.81809,17.6629,48.0885,38.85793,81.01437,15.46033
	c28.64862-20.35814,29.73552-63.01118,28.53773-90.25055c-0.2287-5.20119-7.46805-6.18961-9.0222-1.22077
	c-3.64705,11.65995-9.00829,28.22907-19.427,38.19343c-21.30536,20.37617-37.02211,8.92538-61.17146-4.30339
	C84.79976,138.29285,59.58249,153.46619,92.51009,195.55573z"/>
</svg>
